<svg width="150" height="150" viewBox="0 0 150 150" fill="none" xmlns="http://www.w3.org/2000/svg">
<g clip-path="url(#clip0_520_107)">
<path d="M97.2325 71.9487C97.2091 71.6403 97.1248 71.3396 96.9847 71.0639C96.8445 70.7882 96.6511 70.543 96.4158 70.3424C96.1804 70.1418 95.9076 69.9897 95.6132 69.895C95.3188 69.8003 95.0085 69.7648 94.7003 69.7905C94.3921 69.8163 94.0921 69.9028 93.8174 70.045C93.5428 70.1873 93.2991 70.3825 93.1002 70.6194C92.9014 70.8563 92.7514 71.1302 92.6589 71.4253C92.5665 71.7204 92.5333 72.0309 92.5614 72.3389C96.9038 124.298 82.6722 138.918 76.3517 142.792C70.4337 146.419 63.5047 146.142 56.8362 142.013C47.344 136.136 38.5069 121.86 39.7054 102.993C47.7291 102.418 55.2375 98.8267 60.722 92.942C66.2065 87.0572 69.2605 79.3147 69.2704 71.2705V44.0997C70.9077 43.888 72.4031 43.061 73.4527 41.7866C74.5024 40.5122 75.0275 38.8861 74.9215 37.2385C74.8154 35.5909 74.0862 34.0455 72.8818 32.9162C71.6775 31.7869 70.0884 31.1584 68.4375 31.1584H60.9612V7.25357C60.9673 6.29715 60.7841 5.34897 60.4223 4.46361C60.0605 3.57824 59.5272 2.77316 58.8531 2.09472C58.1789 1.41627 57.3773 0.877841 56.4942 0.510425C55.6112 0.143009 54.6642 -0.0461426 53.7077 -0.0461426C52.7513 -0.0461426 51.8043 0.143009 50.9212 0.510425C50.0382 0.877841 49.2365 1.41627 48.5624 2.09472C47.8882 2.77316 47.3549 3.57824 46.9931 4.46361C46.6313 5.34897 46.4482 6.29715 46.4543 7.25357V31.1598H28.4809V7.25357C28.4809 5.32979 27.7167 3.48481 26.3564 2.12449C24.9961 0.764174 23.1511 -4.41974e-05 21.2273 -4.41974e-05C19.3035 -4.41974e-05 17.4585 0.764174 16.0982 2.12449C14.7379 3.48481 13.9737 5.32979 13.9737 7.25357V31.1598H6.49771C4.8467 31.1598 3.25759 31.7882 2.05321 32.9175C0.848824 34.0468 0.119512 35.5922 0.0134345 37.2398C-0.0926431 38.8874 0.432468 40.5136 1.48209 41.788C2.53171 43.0624 4.02712 43.8895 5.66451 44.1011V71.2705C5.67432 79.2762 8.69906 86.9845 14.1364 92.8604C19.5737 98.7364 27.0247 102.349 35.0056 102.978C34.4815 111.978 36.0483 120.748 39.5701 128.447C43.0233 135.995 48.2789 142.229 54.3685 145.999C58.6637 148.658 63.174 149.994 67.5644 149.994C71.5354 149.992 75.4272 148.882 78.8015 146.789C87.5715 141.413 101.628 124.541 97.2325 71.9487ZM51.1418 7.25357C51.1381 6.91429 51.2018 6.57767 51.3291 6.26317C51.4565 5.94867 51.6449 5.66255 51.8835 5.42135C52.1222 5.18016 52.4063 4.98868 52.7194 4.858C53.0325 4.72732 53.3684 4.66004 53.7077 4.66004C54.047 4.66004 54.3829 4.72732 54.6961 4.858C55.0092 4.98868 55.2933 5.18016 55.5319 5.42135C55.7705 5.66255 55.959 5.94867 56.0863 6.26317C56.2136 6.57767 56.2773 6.91429 56.2737 7.25357V31.1598H51.1418V7.25357ZM18.6612 7.25357C18.6612 6.57299 18.9315 5.92029 19.4128 5.43905C19.894 4.95781 20.5467 4.68746 21.2273 4.68746C21.9079 4.68746 22.5606 4.95781 23.0418 5.43905C23.5231 5.92029 23.7934 6.57299 23.7934 7.25357V31.1598H18.6612V7.25357ZM4.68658 37.6567C4.68712 37.1766 4.87808 36.7163 5.21756 36.3768C5.55704 36.0374 6.01732 35.8464 6.49742 35.8459H68.4375C68.6753 35.8459 68.9107 35.8927 69.1304 35.9837C69.3501 36.0747 69.5498 36.2081 69.7179 36.3762C69.8861 36.5444 70.0195 36.744 70.1105 36.9637C70.2015 37.1834 70.2483 37.4189 70.2483 37.6567C70.2483 37.8945 70.2015 38.13 70.1105 38.3497C70.0195 38.5694 69.8861 38.769 69.7179 38.9372C69.5498 39.1053 69.3501 39.2387 69.1304 39.3297C68.9107 39.4207 68.6753 39.4675 68.4375 39.4675H6.49771C6.01761 39.467 5.55734 39.276 5.21785 38.9366C4.87837 38.5971 4.68712 38.1368 4.68658 37.6567ZM10.352 71.2705V44.155H64.5829V71.2705C64.5829 78.4619 61.7261 85.3588 56.6409 90.444C51.5558 95.5291 44.6589 98.3859 37.4674 98.3859C30.276 98.3859 23.3791 95.5291 18.2939 90.444C13.2088 85.3588 10.352 78.4619 10.352 71.2705ZM47.1615 70.6377C47.1614 68.7204 46.5928 66.8461 45.5276 65.252C44.4624 63.6579 42.9483 62.4154 41.177 61.6817C39.4056 60.9481 37.4565 60.7561 35.576 61.1302C33.6956 61.5043 31.9683 62.4276 30.6126 63.7833C29.2569 65.1391 28.3337 66.8664 27.9596 68.7468C27.5856 70.6273 27.7776 72.5764 28.5113 74.3478C29.2451 76.1191 30.4876 77.6331 32.0817 78.6983C33.6759 79.7634 35.5502 80.332 37.4674 80.332C40.0376 80.329 42.5017 79.3067 44.319 77.4893C46.1364 75.6719 47.1586 73.2078 47.1615 70.6377ZM37.4674 75.6445C36.4772 75.6445 35.5093 75.3509 34.686 74.8007C33.8626 74.2506 33.2209 73.4687 32.842 72.5539C32.4631 71.639 32.3639 70.6324 32.5571 69.6612C32.7503 68.69 33.2271 67.798 33.9273 67.0978C34.6275 66.3976 35.5195 65.9208 36.4907 65.7276C37.4619 65.5344 38.4685 65.6336 39.3834 66.0125C40.2982 66.3914 41.0801 67.0331 41.6302 67.8565C42.1804 68.6798 42.474 69.6477 42.474 70.6379C42.4725 71.9653 41.9446 73.2379 41.006 74.1765C40.0674 75.1151 38.7948 75.643 37.4674 75.6445ZM42.8636 90.498L43.8049 86.4937C44.0694 86.3875 44.3314 86.2748 44.591 86.1556L47.9534 88.2377C48.4025 88.5158 48.9325 88.634 49.4573 88.5731C49.982 88.5122 50.4708 88.2759 50.8444 87.9023L54.9899 83.7574C55.3635 83.3838 55.6 82.8949 55.6608 82.3701C55.7217 81.8453 55.6035 81.3153 55.3253 80.8661L53.1574 77.3674C53.2699 77.1055 53.3757 76.8409 53.475 76.5735L57.3249 75.6682C57.8391 75.5473 58.2975 75.2562 58.6255 74.8421C58.9536 74.428 59.1321 73.9152 59.1322 73.3869V67.5234C59.1321 66.9951 58.9536 66.4823 58.6255 66.0682C58.2975 65.6541 57.8391 65.363 57.3249 65.242L53.3206 64.3004C53.2145 64.0356 53.1019 63.7735 52.9828 63.5141L55.0649 60.1517C55.3431 59.7025 55.4613 59.1725 55.4004 58.6477C55.3395 58.1228 55.1031 57.634 54.7295 57.2604L50.5854 53.1152C50.2118 52.7416 49.723 52.5051 49.1981 52.4442C48.6733 52.3834 48.1433 52.5016 47.6941 52.7797L44.1958 54.9477C43.9338 54.8352 43.6693 54.7293 43.4021 54.6301L42.4971 50.7799C42.3762 50.2656 42.085 49.8072 41.6709 49.4792C41.2567 49.1511 40.7438 48.9726 40.2155 48.9726H34.3532C33.8249 48.9727 33.3121 49.1512 32.898 49.4792C32.4839 49.8073 32.1927 50.2657 32.0718 50.7799L31.1302 54.7851C30.8656 54.8908 30.6035 55.0034 30.3439 55.1229L26.9818 53.0405C26.5326 52.7624 26.0027 52.6442 25.4779 52.7051C24.9531 52.766 24.4643 53.0024 24.0908 53.3759L19.945 57.5214C19.5715 57.895 19.3351 58.3839 19.2743 58.9086C19.2135 59.4334 19.3317 59.9633 19.6098 60.4125L21.776 63.9105C21.6639 64.1724 21.5581 64.4371 21.4585 64.7044L17.6091 65.6097C17.0949 65.7306 16.6365 66.0218 16.3084 66.4359C15.9804 66.85 15.8019 67.3628 15.8018 67.8911V73.7534C15.8019 74.2817 15.9804 74.7945 16.3084 75.2086C16.6365 75.6227 17.0949 75.9138 17.6091 76.0347L21.6134 76.9763C21.7195 77.2412 21.8321 77.5033 21.9512 77.7626L19.8691 81.123C19.5909 81.5722 19.4727 82.1022 19.5336 82.627C19.5945 83.1519 19.8309 83.6407 20.2045 84.0143L24.3498 88.1595C24.7234 88.5332 25.2123 88.7696 25.7372 88.8304C26.2621 88.8913 26.7922 88.773 27.2414 88.4947L30.7391 86.3267C31.0012 86.4394 31.2659 86.5454 31.5331 86.6446L32.438 90.4945C32.559 91.0088 32.8502 91.4671 33.2644 91.7951C33.6785 92.1231 34.1914 92.3016 34.7197 92.3015H40.582C41.1098 92.3017 41.6223 92.1238 42.0364 91.7965C42.4505 91.4691 42.742 91.0116 42.8636 90.498ZM39.534 84.1751L38.7249 87.6161H36.5751L35.7934 84.2906C35.6973 83.8817 35.4931 83.5061 35.2021 83.2031C34.9111 82.9002 34.544 82.681 34.1393 82.5685C33.2893 82.3315 32.4672 82.0038 31.6872 81.5912C31.3257 81.4 30.9205 81.3067 30.5118 81.3206C30.1031 81.3344 29.7052 81.455 29.3575 81.6703L26.3504 83.5327L24.8305 82.013L26.6302 79.1077C26.8514 78.7505 26.9724 78.3405 26.9808 77.9205C26.9891 77.5005 26.8845 77.0859 26.6777 76.7203C26.2431 75.9515 25.8923 75.1382 25.6315 74.2945C25.5109 73.9039 25.2903 73.5517 24.9916 73.2727C24.6929 72.9938 24.3264 72.7978 23.9285 72.7043L20.4881 71.8957V69.7464L23.8133 68.9648C24.2222 68.8687 24.5978 68.6646 24.9008 68.3736C25.2037 68.0827 25.4229 67.7157 25.5354 67.311C25.7723 66.4608 26.0999 65.6385 26.5125 64.8583C26.7037 64.4968 26.797 64.0916 26.7831 63.6829C26.7692 63.2742 26.6486 62.8762 26.4334 62.5286L24.5712 59.5218L26.0912 58.0019L28.9971 59.8016C29.3542 60.0227 29.7642 60.1438 30.1841 60.1522C30.6041 60.1606 31.0186 60.056 31.3842 59.8494C32.153 59.4151 32.966 59.0643 33.8094 58.8032C34.1999 58.6826 34.5521 58.462 34.831 58.1632C35.1099 57.8645 35.3058 57.498 35.3994 57.1001L36.2085 53.6592H38.3578L39.1394 56.985C39.2354 57.3938 39.4395 57.7692 39.7303 58.0721C40.0211 58.375 40.3879 58.5942 40.7923 58.7068C41.6427 58.9438 42.4651 59.2715 43.2454 59.6844C43.6069 59.8757 44.0121 59.969 44.4209 59.9551C44.8296 59.9413 45.2276 59.8207 45.5753 59.6053L48.5824 57.7429L50.1023 59.2623L48.3029 62.1676C48.0817 62.5247 47.9605 62.9348 47.952 63.3548C47.9436 63.7748 48.0482 64.1893 48.2548 64.555C48.6894 65.324 49.0401 66.1373 49.301 66.9811C49.4216 67.3716 49.6422 67.7238 49.941 68.0027C50.2397 68.2816 50.6062 68.4775 51.0041 68.571L54.4447 69.3799V71.5289L51.1186 72.3111C50.7099 72.4073 50.3345 72.6115 50.0318 72.9023C49.729 73.1932 49.5099 73.5601 49.3974 73.9646C49.1603 74.8147 48.8327 75.6369 48.4201 76.417C48.2288 76.7785 48.1355 77.1837 48.1493 77.5924C48.1631 78.0011 48.2837 78.399 48.4989 78.7467L50.3616 81.7541L48.8417 83.2734L45.9369 81.4743C45.5797 81.253 45.1695 81.1318 44.7494 81.1234C44.3293 81.115 43.9147 81.2197 43.5489 81.4265C42.7803 81.861 41.9672 82.2115 41.1237 82.4721C40.7332 82.5928 40.3811 82.8134 40.1023 83.1121C39.8234 83.4109 39.6275 83.7773 39.534 84.1751Z" fill="black"/>
<mask id="path-2-outside-1_520_107" maskUnits="userSpaceOnUse" x="86.0265" y="-1" width="57" height="47" fill="black">
<rect fill="white" x="86.0265" y="-1" width="57" height="47"/>
<path d="M141.675 43.4931L139.552 40.1671L141.724 35.853C141.81 35.7043 141.855 35.5356 141.855 35.3639C141.855 35.1922 141.81 35.0235 141.724 34.8748L139.601 31.5487L141.763 27.2445C141.849 27.0958 141.894 26.9271 141.894 26.7554C141.894 26.5836 141.849 26.4149 141.763 26.2662L139.64 22.9304L140.619 20.925C140.72 20.7256 140.75 20.4974 140.704 20.2784C140.658 20.0595 140.538 19.863 140.364 19.7218L140.051 19.4674L118.197 1.81016L117.796 1.48734C117.636 1.35843 117.439 1.28337 117.233 1.27283C117.028 1.2623 116.824 1.31682 116.652 1.42864L115.321 2.27971L111.036 0.108013C110.883 0.0294678 110.713 -0.00736639 110.541 0.00122073C110.369 0.00980784 110.203 0.0635131 110.058 0.156925L106.752 2.27971L102.467 0.108013C102.314 0.0294678 102.143 -0.00736639 101.971 0.00122073C101.8 0.00980784 101.633 0.0635131 101.489 0.156925L98.1823 2.27971L93.8976 0.108013C93.7643 0.0396517 93.617 0.00283631 93.4672 0.000406284H88.0282C87.8527 0.000698281 87.6806 0.0481794 87.5298 0.137874C87.3789 0.227568 87.255 0.356174 87.171 0.510215C87.087 0.664255 87.046 0.838058 87.0522 1.01341C87.0584 1.18877 87.1117 1.35922 87.2065 1.5069L89.3292 4.84271L87.1575 9.14698C87.0717 9.29569 87.0265 9.46438 87.0265 9.6361C87.0265 9.80782 87.0717 9.97651 87.1575 10.1252L89.2803 13.4512L87.1575 17.7555C87.0717 17.9042 87.0265 18.0729 87.0265 18.2446C87.0265 18.4164 87.0717 18.5851 87.1575 18.7338L89.2803 22.0598L87.1575 26.413C87.079 26.5659 87.0422 26.7369 87.0508 26.9087C87.0593 27.0804 87.113 27.2468 87.2065 27.3912L89.3292 30.7172L87.1673 35.0215C87.0815 35.1702 87.0363 35.3389 87.0363 35.5106C87.0363 35.6824 87.0815 35.851 87.1673 35.9998L89.2901 39.3356L87.1184 43.6398C87.0551 43.7893 87.03 43.9521 87.0453 44.1137C87.0606 44.2753 87.1159 44.4305 87.2061 44.5654C87.2964 44.7003 87.4188 44.8106 87.5623 44.8864C87.7058 44.9622 87.8659 45.0011 88.0282 44.9996H92.5868C92.7742 44.9991 92.9576 44.9448 93.115 44.8431L96.4215 42.7203L100.745 44.892C100.898 44.9705 101.069 45.0074 101.241 44.9988C101.413 44.9902 101.579 44.9365 101.724 44.8431L105.03 42.7203L109.315 44.892C109.468 44.9705 109.639 45.0074 109.81 44.9988C109.982 44.9902 110.149 44.9365 110.293 44.8431L113.599 42.7203L117.884 44.892C118.037 44.9705 118.208 45.0074 118.38 44.9988C118.552 44.9902 118.718 44.9365 118.862 44.8431L122.179 42.7203L126.463 44.892C126.616 44.9705 126.787 45.0074 126.959 44.9988C127.131 44.9902 127.297 44.9365 127.442 44.8431L130.758 42.7203L134.984 44.892C135.12 44.9618 135.271 44.9987 135.424 44.9996H140.853C141.029 44.9993 141.201 44.9518 141.352 44.8621C141.503 44.7724 141.626 44.6438 141.71 44.4898C141.795 44.3357 141.836 44.1619 141.829 43.9866C141.823 43.8112 141.77 43.6408 141.675 43.4931ZM135.571 18.4207L134.984 18.2055C134.821 18.1435 134.644 18.1262 134.472 18.1554C134.3 18.1847 134.139 18.2594 134.006 18.3718L130.279 21.4337L126.561 20.1033C126.398 20.0413 126.221 20.024 126.049 20.0532C125.877 20.0825 125.716 20.1572 125.583 20.2696L122.648 22.6761L122.061 20.0544L123.499 16.1414C123.561 15.9783 123.579 15.8017 123.549 15.6296C123.52 15.4576 123.445 15.2966 123.333 15.1632L120.31 11.4361L121.66 7.74809C121.693 7.66008 121.713 7.56783 121.719 7.47418C121.719 7.47418 121.719 7.41549 121.719 7.38614C121.725 7.32433 121.725 7.26209 121.719 7.20028L135.571 18.4207ZM135.649 43.0431L131.071 40.7247C130.918 40.6461 130.747 40.6093 130.575 40.6179C130.403 40.6265 130.237 40.6802 130.093 40.7736L126.776 42.8964L122.492 40.7247C122.339 40.6461 122.168 40.6093 121.996 40.6179C121.824 40.6265 121.658 40.6802 121.513 40.7736L118.197 42.8964L113.912 40.7247C113.76 40.6461 113.589 40.6093 113.417 40.6179C113.245 40.6265 113.079 40.6802 112.934 40.7736L109.628 42.8964L105.343 40.7247C105.19 40.6461 105.019 40.6093 104.847 40.6179C104.676 40.6265 104.509 40.6802 104.365 40.7736L101.058 42.8964L96.8324 40.7247C96.6794 40.6461 96.5084 40.6093 96.3367 40.6179C96.1649 40.6265 95.9985 40.6802 95.8541 40.7736L92.3031 43.0431H89.6129L91.3151 39.6584C91.4009 39.5097 91.4461 39.341 91.4461 39.1693C91.4461 38.9975 91.4009 38.8289 91.3151 38.6801L89.1532 35.3541L91.3249 31.0498C91.4107 30.9011 91.4559 30.7324 91.4559 30.5607C91.4559 30.389 91.4107 30.2203 91.3249 30.0716L89.2021 26.7456L91.3738 22.4217C91.4523 22.2688 91.4892 22.0978 91.4806 21.9261C91.472 21.7543 91.4183 21.5879 91.3249 21.4435L89.2021 18.1175L91.364 13.8034C91.4499 13.6547 91.4951 13.486 91.4951 13.3143C91.4951 13.1426 91.4499 12.9739 91.364 12.8252L89.2412 9.49915L91.4031 5.19488C91.489 5.04617 91.5342 4.87747 91.5342 4.70576C91.5342 4.53404 91.489 4.36535 91.4031 4.21663L89.8086 1.95689H93.2324L97.8106 4.27533C97.9636 4.35387 98.1346 4.39071 98.3063 4.38212C98.478 4.37353 98.6445 4.31983 98.7889 4.22642L102.095 2.10363L106.39 4.27533C106.543 4.35387 106.714 4.39071 106.885 4.38212C107.057 4.37353 107.224 4.31983 107.368 4.22642L110.675 2.10363L114.959 4.27533C115.112 4.35387 115.283 4.39071 115.455 4.38212C115.627 4.37353 115.793 4.31983 115.937 4.22642L116.554 3.83512L116.573 3.91338L119.635 7.61114L118.285 11.2991C118.223 11.4622 118.206 11.6389 118.235 11.8109C118.264 11.9829 118.339 12.1439 118.452 12.2774L121.523 15.9947L120.183 19.6827C120.131 19.8615 120.131 20.0516 120.183 20.2305L121.161 24.6815C121.209 24.8924 121.325 25.0817 121.491 25.2197C121.657 25.3578 121.865 25.4368 122.081 25.4445H122.472C122.567 25.4096 122.656 25.3601 122.736 25.2978L126.473 22.2359L130.161 23.4782C130.324 23.5403 130.501 23.5576 130.673 23.5283C130.845 23.4991 131.006 23.4244 131.139 23.3119L134.866 20.25L138.163 21.4337L137.586 22.5783C137.5 22.727 137.455 22.8957 137.455 23.0674C137.455 23.2391 137.5 23.4078 137.586 23.5565L139.709 26.8923L137.547 31.1966C137.461 31.3453 137.416 31.514 137.416 31.6857C137.416 31.8574 137.461 32.0261 137.547 32.1748L139.67 35.5009L137.498 39.8149C137.412 39.9636 137.367 40.1323 137.367 40.304C137.367 40.4757 137.412 40.6444 137.498 40.7931L139.073 43.0431H135.649Z"/>
</mask>
<path d="M141.675 43.4931L139.552 40.1671L141.724 35.853C141.81 35.7043 141.855 35.5356 141.855 35.3639C141.855 35.1922 141.81 35.0235 141.724 34.8748L139.601 31.5487L141.763 27.2445C141.849 27.0958 141.894 26.9271 141.894 26.7554C141.894 26.5836 141.849 26.4149 141.763 26.2662L139.64 22.9304L140.619 20.925C140.72 20.7256 140.75 20.4974 140.704 20.2784C140.658 20.0595 140.538 19.863 140.364 19.7218L140.051 19.4674L118.197 1.81016L117.796 1.48734C117.636 1.35843 117.439 1.28337 117.233 1.27283C117.028 1.2623 116.824 1.31682 116.652 1.42864L115.321 2.27971L111.036 0.108013C110.883 0.0294678 110.713 -0.00736639 110.541 0.00122073C110.369 0.00980784 110.203 0.0635131 110.058 0.156925L106.752 2.27971L102.467 0.108013C102.314 0.0294678 102.143 -0.00736639 101.971 0.00122073C101.8 0.00980784 101.633 0.0635131 101.489 0.156925L98.1823 2.27971L93.8976 0.108013C93.7643 0.0396517 93.617 0.00283631 93.4672 0.000406284H88.0282C87.8527 0.000698281 87.6806 0.0481794 87.5298 0.137874C87.3789 0.227568 87.255 0.356174 87.171 0.510215C87.087 0.664255 87.046 0.838058 87.0522 1.01341C87.0584 1.18877 87.1117 1.35922 87.2065 1.5069L89.3292 4.84271L87.1575 9.14698C87.0717 9.29569 87.0265 9.46438 87.0265 9.6361C87.0265 9.80782 87.0717 9.97651 87.1575 10.1252L89.2803 13.4512L87.1575 17.7555C87.0717 17.9042 87.0265 18.0729 87.0265 18.2446C87.0265 18.4164 87.0717 18.5851 87.1575 18.7338L89.2803 22.0598L87.1575 26.413C87.079 26.5659 87.0422 26.7369 87.0508 26.9087C87.0593 27.0804 87.113 27.2468 87.2065 27.3912L89.3292 30.7172L87.1673 35.0215C87.0815 35.1702 87.0363 35.3389 87.0363 35.5106C87.0363 35.6824 87.0815 35.851 87.1673 35.9998L89.2901 39.3356L87.1184 43.6398C87.0551 43.7893 87.03 43.9521 87.0453 44.1137C87.0606 44.2753 87.1159 44.4305 87.2061 44.5654C87.2964 44.7003 87.4188 44.8106 87.5623 44.8864C87.7058 44.9622 87.8659 45.0011 88.0282 44.9996H92.5868C92.7742 44.9991 92.9576 44.9448 93.115 44.8431L96.4215 42.7203L100.745 44.892C100.898 44.9705 101.069 45.0074 101.241 44.9988C101.413 44.9902 101.579 44.9365 101.724 44.8431L105.03 42.7203L109.315 44.892C109.468 44.9705 109.639 45.0074 109.81 44.9988C109.982 44.9902 110.149 44.9365 110.293 44.8431L113.599 42.7203L117.884 44.892C118.037 44.9705 118.208 45.0074 118.38 44.9988C118.552 44.9902 118.718 44.9365 118.862 44.8431L122.179 42.7203L126.463 44.892C126.616 44.9705 126.787 45.0074 126.959 44.9988C127.131 44.9902 127.297 44.9365 127.442 44.8431L130.758 42.7203L134.984 44.892C135.12 44.9618 135.271 44.9987 135.424 44.9996H140.853C141.029 44.9993 141.201 44.9518 141.352 44.8621C141.503 44.7724 141.626 44.6438 141.71 44.4898C141.795 44.3357 141.836 44.1619 141.829 43.9866C141.823 43.8112 141.77 43.6408 141.675 43.4931ZM135.571 18.4207L134.984 18.2055C134.821 18.1435 134.644 18.1262 134.472 18.1554C134.3 18.1847 134.139 18.2594 134.006 18.3718L130.279 21.4337L126.561 20.1033C126.398 20.0413 126.221 20.024 126.049 20.0532C125.877 20.0825 125.716 20.1572 125.583 20.2696L122.648 22.6761L122.061 20.0544L123.499 16.1414C123.561 15.9783 123.579 15.8017 123.549 15.6296C123.52 15.4576 123.445 15.2966 123.333 15.1632L120.31 11.4361L121.66 7.74809C121.693 7.66008 121.713 7.56783 121.719 7.47418C121.719 7.47418 121.719 7.41549 121.719 7.38614C121.725 7.32433 121.725 7.26209 121.719 7.20028L135.571 18.4207ZM135.649 43.0431L131.071 40.7247C130.918 40.6461 130.747 40.6093 130.575 40.6179C130.403 40.6265 130.237 40.6802 130.093 40.7736L126.776 42.8964L122.492 40.7247C122.339 40.6461 122.168 40.6093 121.996 40.6179C121.824 40.6265 121.658 40.6802 121.513 40.7736L118.197 42.8964L113.912 40.7247C113.76 40.6461 113.589 40.6093 113.417 40.6179C113.245 40.6265 113.079 40.6802 112.934 40.7736L109.628 42.8964L105.343 40.7247C105.19 40.6461 105.019 40.6093 104.847 40.6179C104.676 40.6265 104.509 40.6802 104.365 40.7736L101.058 42.8964L96.8324 40.7247C96.6794 40.6461 96.5084 40.6093 96.3367 40.6179C96.1649 40.6265 95.9985 40.6802 95.8541 40.7736L92.3031 43.0431H89.6129L91.3151 39.6584C91.4009 39.5097 91.4461 39.341 91.4461 39.1693C91.4461 38.9975 91.4009 38.8289 91.3151 38.6801L89.1532 35.3541L91.3249 31.0498C91.4107 30.9011 91.4559 30.7324 91.4559 30.5607C91.4559 30.389 91.4107 30.2203 91.3249 30.0716L89.2021 26.7456L91.3738 22.4217C91.4523 22.2688 91.4892 22.0978 91.4806 21.9261C91.472 21.7543 91.4183 21.5879 91.3249 21.4435L89.2021 18.1175L91.364 13.8034C91.4499 13.6547 91.4951 13.486 91.4951 13.3143C91.4951 13.1426 91.4499 12.9739 91.364 12.8252L89.2412 9.49915L91.4031 5.19488C91.489 5.04617 91.5342 4.87747 91.5342 4.70576C91.5342 4.53404 91.489 4.36535 91.4031 4.21663L89.8086 1.95689H93.2324L97.8106 4.27533C97.9636 4.35387 98.1346 4.39071 98.3063 4.38212C98.478 4.37353 98.6445 4.31983 98.7889 4.22642L102.095 2.10363L106.39 4.27533C106.543 4.35387 106.714 4.39071 106.885 4.38212C107.057 4.37353 107.224 4.31983 107.368 4.22642L110.675 2.10363L114.959 4.27533C115.112 4.35387 115.283 4.39071 115.455 4.38212C115.627 4.37353 115.793 4.31983 115.937 4.22642L116.554 3.83512L116.573 3.91338L119.635 7.61114L118.285 11.2991C118.223 11.4622 118.206 11.6389 118.235 11.8109C118.264 11.9829 118.339 12.1439 118.452 12.2774L121.523 15.9947L120.183 19.6827C120.131 19.8615 120.131 20.0516 120.183 20.2305L121.161 24.6815C121.209 24.8924 121.325 25.0817 121.491 25.2197C121.657 25.3578 121.865 25.4368 122.081 25.4445H122.472C122.567 25.4096 122.656 25.3601 122.736 25.2978L126.473 22.2359L130.161 23.4782C130.324 23.5403 130.501 23.5576 130.673 23.5283C130.845 23.4991 131.006 23.4244 131.139 23.3119L134.866 20.25L138.163 21.4337L137.586 22.5783C137.5 22.727 137.455 22.8957 137.455 23.0674C137.455 23.2391 137.5 23.4078 137.586 23.5565L139.709 26.8923L137.547 31.1966C137.461 31.3453 137.416 31.514 137.416 31.6857C137.416 31.8574 137.461 32.0261 137.547 32.1748L139.67 35.5009L137.498 39.8149C137.412 39.9636 137.367 40.1323 137.367 40.304C137.367 40.4757 137.412 40.6444 137.498 40.7931L139.073 43.0431H135.649Z" fill="black"/>
<path d="M141.675 43.4931L139.552 40.1671L141.724 35.853C141.81 35.7043 141.855 35.5356 141.855 35.3639C141.855 35.1922 141.81 35.0235 141.724 34.8748L139.601 31.5487L141.763 27.2445C141.849 27.0958 141.894 26.9271 141.894 26.7554C141.894 26.5836 141.849 26.4149 141.763 26.2662L139.64 22.9304L140.619 20.925C140.72 20.7256 140.75 20.4974 140.704 20.2784C140.658 20.0595 140.538 19.863 140.364 19.7218L140.051 19.4674L118.197 1.81016L117.796 1.48734C117.636 1.35843 117.439 1.28337 117.233 1.27283C117.028 1.2623 116.824 1.31682 116.652 1.42864L115.321 2.27971L111.036 0.108013C110.883 0.0294678 110.713 -0.00736639 110.541 0.00122073C110.369 0.00980784 110.203 0.0635131 110.058 0.156925L106.752 2.27971L102.467 0.108013C102.314 0.0294678 102.143 -0.00736639 101.971 0.00122073C101.8 0.00980784 101.633 0.0635131 101.489 0.156925L98.1823 2.27971L93.8976 0.108013C93.7643 0.0396517 93.617 0.00283631 93.4672 0.000406284H88.0282C87.8527 0.000698281 87.6806 0.0481794 87.5298 0.137874C87.3789 0.227568 87.255 0.356174 87.171 0.510215C87.087 0.664255 87.046 0.838058 87.0522 1.01341C87.0584 1.18877 87.1117 1.35922 87.2065 1.5069L89.3292 4.84271L87.1575 9.14698C87.0717 9.29569 87.0265 9.46438 87.0265 9.6361C87.0265 9.80782 87.0717 9.97651 87.1575 10.1252L89.2803 13.4512L87.1575 17.7555C87.0717 17.9042 87.0265 18.0729 87.0265 18.2446C87.0265 18.4164 87.0717 18.5851 87.1575 18.7338L89.2803 22.0598L87.1575 26.413C87.079 26.5659 87.0422 26.7369 87.0508 26.9087C87.0593 27.0804 87.113 27.2468 87.2065 27.3912L89.3292 30.7172L87.1673 35.0215C87.0815 35.1702 87.0363 35.3389 87.0363 35.5106C87.0363 35.6824 87.0815 35.851 87.1673 35.9998L89.2901 39.3356L87.1184 43.6398C87.0551 43.7893 87.03 43.9521 87.0453 44.1137C87.0606 44.2753 87.1159 44.4305 87.2061 44.5654C87.2964 44.7003 87.4188 44.8106 87.5623 44.8864C87.7058 44.9622 87.8659 45.0011 88.0282 44.9996H92.5868C92.7742 44.9991 92.9576 44.9448 93.115 44.8431L96.4215 42.7203L100.745 44.892C100.898 44.9705 101.069 45.0074 101.241 44.9988C101.413 44.9902 101.579 44.9365 101.724 44.8431L105.03 42.7203L109.315 44.892C109.468 44.9705 109.639 45.0074 109.81 44.9988C109.982 44.9902 110.149 44.9365 110.293 44.8431L113.599 42.7203L117.884 44.892C118.037 44.9705 118.208 45.0074 118.38 44.9988C118.552 44.9902 118.718 44.9365 118.862 44.8431L122.179 42.7203L126.463 44.892C126.616 44.9705 126.787 45.0074 126.959 44.9988C127.131 44.9902 127.297 44.9365 127.442 44.8431L130.758 42.7203L134.984 44.892C135.12 44.9618 135.271 44.9987 135.424 44.9996H140.853C141.029 44.9993 141.201 44.9518 141.352 44.8621C141.503 44.7724 141.626 44.6438 141.71 44.4898C141.795 44.3357 141.836 44.1619 141.829 43.9866C141.823 43.8112 141.77 43.6408 141.675 43.4931ZM135.571 18.4207L134.984 18.2055C134.821 18.1435 134.644 18.1262 134.472 18.1554C134.3 18.1847 134.139 18.2594 134.006 18.3718L130.279 21.4337L126.561 20.1033C126.398 20.0413 126.221 20.024 126.049 20.0532C125.877 20.0825 125.716 20.1572 125.583 20.2696L122.648 22.6761L122.061 20.0544L123.499 16.1414C123.561 15.9783 123.579 15.8017 123.549 15.6296C123.52 15.4576 123.445 15.2966 123.333 15.1632L120.31 11.4361L121.66 7.74809C121.693 7.66008 121.713 7.56783 121.719 7.47418C121.719 7.47418 121.719 7.41549 121.719 7.38614C121.725 7.32433 121.725 7.26209 121.719 7.20028L135.571 18.4207ZM135.649 43.0431L131.071 40.7247C130.918 40.6461 130.747 40.6093 130.575 40.6179C130.403 40.6265 130.237 40.6802 130.093 40.7736L126.776 42.8964L122.492 40.7247C122.339 40.6461 122.168 40.6093 121.996 40.6179C121.824 40.6265 121.658 40.6802 121.513 40.7736L118.197 42.8964L113.912 40.7247C113.76 40.6461 113.589 40.6093 113.417 40.6179C113.245 40.6265 113.079 40.6802 112.934 40.7736L109.628 42.8964L105.343 40.7247C105.19 40.6461 105.019 40.6093 104.847 40.6179C104.676 40.6265 104.509 40.6802 104.365 40.7736L101.058 42.8964L96.8324 40.7247C96.6794 40.6461 96.5084 40.6093 96.3367 40.6179C96.1649 40.6265 95.9985 40.6802 95.8541 40.7736L92.3031 43.0431H89.6129L91.3151 39.6584C91.4009 39.5097 91.4461 39.341 91.4461 39.1693C91.4461 38.9975 91.4009 38.8289 91.3151 38.6801L89.1532 35.3541L91.3249 31.0498C91.4107 30.9011 91.4559 30.7324 91.4559 30.5607C91.4559 30.389 91.4107 30.2203 91.3249 30.0716L89.2021 26.7456L91.3738 22.4217C91.4523 22.2688 91.4892 22.0978 91.4806 21.9261C91.472 21.7543 91.4183 21.5879 91.3249 21.4435L89.2021 18.1175L91.364 13.8034C91.4499 13.6547 91.4951 13.486 91.4951 13.3143C91.4951 13.1426 91.4499 12.9739 91.364 12.8252L89.2412 9.49915L91.4031 5.19488C91.489 5.04617 91.5342 4.87747 91.5342 4.70576C91.5342 4.53404 91.489 4.36535 91.4031 4.21663L89.8086 1.95689H93.2324L97.8106 4.27533C97.9636 4.35387 98.1346 4.39071 98.3063 4.38212C98.478 4.37353 98.6445 4.31983 98.7889 4.22642L102.095 2.10363L106.39 4.27533C106.543 4.35387 106.714 4.39071 106.885 4.38212C107.057 4.37353 107.224 4.31983 107.368 4.22642L110.675 2.10363L114.959 4.27533C115.112 4.35387 115.283 4.39071 115.455 4.38212C115.627 4.37353 115.793 4.31983 115.937 4.22642L116.554 3.83512L116.573 3.91338L119.635 7.61114L118.285 11.2991C118.223 11.4622 118.206 11.6389 118.235 11.8109C118.264 11.9829 118.339 12.1439 118.452 12.2774L121.523 15.9947L120.183 19.6827C120.131 19.8615 120.131 20.0516 120.183 20.2305L121.161 24.6815C121.209 24.8924 121.325 25.0817 121.491 25.2197C121.657 25.3578 121.865 25.4368 122.081 25.4445H122.472C122.567 25.4096 122.656 25.3601 122.736 25.2978L126.473 22.2359L130.161 23.4782C130.324 23.5403 130.501 23.5576 130.673 23.5283C130.845 23.4991 131.006 23.4244 131.139 23.3119L134.866 20.25L138.163 21.4337L137.586 22.5783C137.5 22.727 137.455 22.8957 137.455 23.0674C137.455 23.2391 137.5 23.4078 137.586 23.5565L139.709 26.8923L137.547 31.1966C137.461 31.3453 137.416 31.514 137.416 31.6857C137.416 31.8574 137.461 32.0261 137.547 32.1748L139.67 35.5009L137.498 39.8149C137.412 39.9636 137.367 40.1323 137.367 40.304C137.367 40.4757 137.412 40.6444 137.498 40.7931L139.073 43.0431H135.649Z" stroke="black" stroke-width="2" mask="url(#path-2-outside-1_520_107)"/>
<path d="M104.127 11.161L104.127 11.161L104.129 11.1575C104.215 10.9829 104.265 10.793 104.277 10.5988C104.29 10.4046 104.263 10.2099 104.2 10.0259C104.137 9.84188 104.038 9.67213 103.909 9.5264C103.781 9.38116 103.625 9.26263 103.451 9.17755C103.1 9.00408 102.695 8.97656 102.324 9.10108C101.953 9.22576 101.646 9.49269 101.472 9.84324C101.472 9.84338 101.472 9.84352 101.472 9.84366L95.4782 21.8304C95.3869 22.003 95.3306 22.192 95.3127 22.3865C95.2945 22.5836 95.3162 22.7824 95.3763 22.971C95.4364 23.1596 95.5338 23.3342 95.6627 23.4845C95.7916 23.6347 95.9493 23.7576 96.1266 23.8457C96.3038 23.9338 96.497 23.9855 96.6946 23.9975C96.8922 24.0096 97.0902 23.9819 97.2768 23.916C97.4635 23.8501 97.635 23.7473 97.7813 23.6139C97.9252 23.4825 98.0417 23.324 98.1241 23.1475L104.127 11.161ZM117.227 9.17866L117.226 9.17845C116.875 9.00417 116.469 8.97634 116.098 9.10108C115.727 9.22578 115.42 9.49277 115.245 9.84339C115.245 9.84348 115.245 9.84357 115.245 9.84366L102.179 35.966C102.088 36.1386 102.032 36.3276 102.014 36.5221C101.995 36.7192 102.017 36.918 102.077 37.1066C102.137 37.2952 102.235 37.4698 102.364 37.6201C102.493 37.7703 102.65 37.8932 102.828 37.9813C103.005 38.0695 103.198 38.1211 103.396 38.1332C103.593 38.1452 103.791 38.1175 103.978 38.0516C104.164 37.9857 104.336 37.8829 104.482 37.7495C104.626 37.6181 104.743 37.4595 104.825 37.283L117.891 11.1608L117.892 11.1595C118.066 10.8086 118.094 10.4028 117.969 10.0314C117.844 9.65997 117.577 9.35326 117.227 9.17866ZM121.617 27.9943L121.617 27.9942L121.609 27.9901C121.258 27.8158 120.852 27.788 120.481 27.9127C120.109 28.0374 119.803 28.3042 119.628 28.6547C119.628 28.6549 119.628 28.6551 119.628 28.6553L115.953 35.9655C115.862 36.1382 115.805 36.3274 115.787 36.5221C115.769 36.7192 115.791 36.918 115.851 37.1066C115.911 37.2952 116.008 37.4698 116.137 37.6201C116.266 37.7703 116.424 37.8932 116.601 37.9813C116.778 38.0695 116.972 38.1211 117.169 38.1332C117.367 38.1452 117.565 38.1175 117.751 38.0516C117.938 37.9857 118.11 37.8829 118.256 37.7495C118.4 37.6181 118.516 37.4595 118.599 37.2829L122.264 29.9528L122.264 29.9528L122.267 29.9456C122.434 29.5995 122.459 29.2024 122.337 28.8383C122.216 28.4741 121.958 28.1714 121.617 27.9943ZM132.687 27.9922L132.682 27.9901C132.331 27.8158 131.926 27.788 131.554 27.9127C131.183 28.0374 130.876 28.3044 130.702 28.6551C130.702 28.6551 130.702 28.6552 130.702 28.6553L127.037 35.9657C126.945 36.1384 126.889 36.3275 126.871 36.5221C126.853 36.7192 126.874 36.918 126.934 37.1066C126.995 37.2952 127.092 37.4698 127.221 37.6201C127.35 37.7703 127.507 37.8932 127.685 37.9813C127.862 38.0695 128.055 38.1211 128.253 38.1332C128.45 38.1452 128.648 38.1175 128.835 38.0516C129.022 37.9857 129.193 37.8829 129.339 37.7495C129.483 37.6181 129.6 37.4596 129.682 37.283L133.347 29.9528L133.347 29.9528L133.352 29.9435C133.517 29.5957 133.54 29.1972 133.416 28.8328C133.291 28.4684 133.03 28.1668 132.687 27.9922Z" fill="black" stroke="black"/>
<path d="M111.222 73.2812V53.6222H115.682V73.2812H111.222ZM103.622 65.6818V61.2216H123.281V65.6818H103.622Z" fill="black"/>
</g>
<defs>
<clipPath id="clip0_520_107">
<rect width="150" height="150" fill="white"/>
</clipPath>
</defs>
</svg>
