<svg width="150" height="150" viewBox="0 0 150 150" fill="none" xmlns="http://www.w3.org/2000/svg">
<path d="M139.676 64.7016C139.305 59.3665 138.633 54.0565 137.665 48.7969C137.549 48.1768 137.291 47.592 136.911 47.0888C136.53 46.5857 136.038 46.1779 135.473 45.8978C134.908 45.6177 134.285 45.4729 133.654 45.475C133.023 45.477 132.402 45.6257 131.838 45.9094C127.753 47.9206 124.55 51.3631 122.838 55.5821C121.284 59.601 121.201 64.0399 122.604 68.1141C122.91 68.9952 122.888 69.9571 122.543 70.8235L120.251 76.3547C118.439 76.5736 116.746 77.3671 115.418 78.6188L106.043 87.5086C105.708 87.8295 105.269 88.0184 104.805 88.0407C101.853 88.1649 98.9601 88.9058 96.3117 90.2157C93.974 91.3801 91.8759 92.9734 90.1265 94.9125C86.5903 98.8066 84.6324 103.879 84.6351 109.139V121.116C83.4595 121.202 82.3597 121.729 81.5558 122.591C80.7519 123.453 80.3031 124.587 80.2992 125.766V135.954C80.3004 137.197 80.7947 138.388 81.6735 139.267C82.5523 140.146 83.7439 140.64 84.9867 140.641H115.629C116.872 140.64 118.063 140.146 118.942 139.267C119.821 138.388 120.315 137.197 120.316 135.954V125.766C120.315 124.523 119.821 123.331 118.942 122.452C118.063 121.574 116.872 121.079 115.629 121.078H115.184V121.001C115.212 120.024 115.618 119.097 116.316 118.413L135.352 99.7336C137.267 97.8451 138.496 95.37 138.841 92.7024C140.039 83.4189 140.318 74.04 139.676 64.7016ZM115.629 135.952H84.9867V125.766H115.629V135.952ZM134.191 92.1047C133.981 93.7298 133.234 95.2379 132.068 96.3891L113.032 115.069C111.469 116.6 110.561 118.678 110.501 120.865L110.494 121.078H89.3203V109.139C89.3186 105.043 90.8436 101.094 93.5976 98.0625C94.9534 96.5565 96.58 95.3186 98.3929 94.4133C100.46 93.3946 102.718 92.8198 105.021 92.7258C106.607 92.6485 108.113 92.0038 109.263 90.9094L118.638 82.0196C119.197 81.4917 119.899 81.141 120.656 81.0117C121.414 80.8824 122.193 80.9803 122.895 81.293C123.23 81.4433 123.513 81.6917 123.705 82.0054C123.897 82.3191 123.989 82.6835 123.97 83.0508C123.97 84.1324 123.573 85.1763 122.855 85.9852L111.159 99.1899C110.95 99.4195 110.789 99.6883 110.685 99.9807C110.581 100.273 110.536 100.583 110.553 100.893C110.569 101.203 110.647 101.507 110.782 101.786C110.917 102.066 111.106 102.316 111.339 102.522C111.571 102.728 111.842 102.885 112.136 102.985C112.43 103.086 112.74 103.127 113.05 103.106C113.36 103.085 113.662 103.003 113.94 102.864C114.218 102.725 114.465 102.533 114.668 102.298L126.366 89.093C127.864 87.3896 128.68 85.1928 128.658 82.9243C128.654 81.7117 128.309 80.5247 127.663 79.4989C127.016 78.4731 126.094 77.6499 125.002 77.1235L126.872 72.6141C127.649 70.7059 127.712 68.5816 127.05 66.6305C125.985 63.6479 126.02 60.3831 127.148 57.4239C128.276 54.4646 130.424 52.0054 133.205 50.4891C134.06 55.3 134.658 60.1529 134.998 65.0274C135.618 74.0578 135.35 83.1274 134.191 92.1047ZM65.3672 121.113V109.863C65.4385 104.005 63.1986 98.3549 59.1328 94.1368C57.5431 92.5425 55.7042 91.2181 53.6883 90.2157C51.0479 88.9112 48.1648 88.1713 45.2226 88.043C44.7731 88.031 44.3426 87.8589 44.0086 87.5579L34.582 78.6188C33.2562 77.3665 31.5625 76.5743 29.7515 76.3594L27.457 70.8258C27.1103 69.959 27.0878 68.9962 27.3937 68.1141C28.798 64.0405 28.7166 59.6015 27.164 55.5821C25.4504 51.3612 22.2447 47.9178 18.157 45.9071C17.5936 45.6243 16.9722 45.4764 16.3419 45.475C15.7115 45.4736 15.0895 45.6187 14.5248 45.899C13.9602 46.1793 13.4685 46.587 13.0884 47.0899C12.7084 47.5928 12.4505 48.1772 12.3351 48.7969C9.66358 63.2828 9.26662 78.0966 11.1586 92.7047C11.5049 95.3727 12.7342 97.8479 14.6508 99.736L33.682 118.416C34.3796 119.098 34.7854 120.023 34.814 120.998L34.8164 121.078H34.3711C33.1282 121.079 31.9367 121.574 31.0579 122.452C30.1791 123.331 29.6848 124.523 29.6836 125.766V135.954C29.6848 137.197 30.1791 138.388 31.0579 139.267C31.9367 140.146 33.1282 140.64 34.3711 140.641H65.0133C66.2561 140.64 67.4476 140.146 68.3264 139.267C69.2053 138.388 69.6995 137.197 69.7008 135.954V125.766C69.6974 124.586 69.2489 123.452 68.4449 122.589C67.6409 121.727 66.5432 121.2 65.3672 121.113ZM39.5015 120.863C39.4396 118.675 38.5303 116.598 36.9656 115.069L17.9343 96.3891C16.767 95.2386 16.0186 93.7302 15.8086 92.1047C14.0155 78.2637 14.3474 64.2299 16.7929 50.4891C19.5213 51.9949 21.6439 54.3991 22.8 57.293C23.9483 60.2908 24.0006 63.5979 22.9476 66.6305C22.2853 68.5823 22.3486 70.7075 23.1258 72.6165L24.9937 77.1211C23.885 77.6612 22.9527 78.5055 22.3057 79.5554C21.6588 80.6054 21.3238 81.8177 21.3398 83.0508C21.3398 85.2766 22.1552 87.4253 23.632 89.0907L35.3297 102.298C35.5324 102.533 35.7798 102.725 36.0575 102.864C36.3352 103.003 36.6377 103.085 36.9474 103.106C37.2571 103.127 37.5679 103.086 37.8617 102.985C38.1555 102.885 38.4264 102.728 38.6588 102.522C38.8912 102.316 39.0803 102.066 39.2153 101.786C39.3503 101.507 39.4284 101.203 39.4451 100.893C39.4618 100.583 39.4167 100.273 39.3126 99.9807C39.2084 99.6883 39.0472 99.4195 38.8383 99.1899L27.1429 85.9829C26.403 85.138 26.0051 84.0472 26.0273 82.9243C26.0299 82.5684 26.1383 82.2212 26.3386 81.927C26.5389 81.6328 26.8221 81.4048 27.1523 81.2719C27.8495 80.9711 28.6198 80.8818 29.3673 81.0152C30.1149 81.1485 30.8068 81.4986 31.357 82.0219L40.7859 90.9633C41.9348 92.0356 43.4298 92.6609 45 92.7258C47.2948 92.8237 49.5441 93.3984 51.6047 94.4133C53.1647 95.1907 54.588 96.2166 55.8187 97.4508C59.0065 100.789 60.7519 105.248 60.6773 109.863V121.078H39.5062L39.5015 120.863ZM65.0133 135.954H34.3711V125.766H65.0133V135.954ZM75.0023 78.3211C74.5193 78.322 74.041 78.2255 73.5961 78.0376C70.0134 76.4639 66.6239 74.4829 63.4945 72.1336C44.3976 58.486 44.7726 31.0243 44.932 19.2938L44.9554 17.3743C44.9604 16.6341 45.1945 15.9135 45.6255 15.3117C46.0565 14.7099 46.6633 14.2563 47.3625 14.0133C56.2577 10.9737 65.5882 9.40158 74.9883 9.35864C84.3945 9.39871 93.7315 10.9701 102.633 14.011C103.333 14.2533 103.942 14.7068 104.374 15.3091C104.807 15.9114 105.042 16.6329 105.047 17.3743L105.07 19.2961C105.227 31.0219 105.602 58.486 86.5078 72.1336C83.3769 74.4832 79.9858 76.4642 76.4015 78.0376C75.9589 78.225 75.483 78.3215 75.0023 78.3211ZM49.6312 18.1922L49.6172 19.3594C49.4695 30.3516 49.1203 56.1 66.2179 68.3204C68.9471 70.3739 71.8918 72.1241 75 73.5399C78.1077 72.1233 81.0524 70.3732 83.782 68.3204C100.88 56.1 100.53 30.3516 100.383 19.3594L100.369 18.1946C92.1795 15.4853 83.614 14.0852 74.9883 14.0461C66.3704 14.0878 57.813 15.4854 49.6312 18.1922Z" fill="black"/>
<path d="M70.5281 50.3461C70.0794 50.345 69.6363 50.2463 69.2296 50.0569C68.8229 49.8675 68.4622 49.5919 68.1726 49.2492L61.8796 41.8898C61.6796 41.6559 61.5275 41.3849 61.4322 41.0922C61.3369 40.7996 61.3002 40.491 61.3241 40.1841C61.3725 39.5644 61.665 38.9892 62.1374 38.5852C62.6099 38.1811 63.2234 37.9813 63.8432 38.0296C64.4629 38.078 65.0381 38.3706 65.4421 38.843L70.5234 44.7844L84.5531 28.2703C84.9556 27.7963 85.5298 27.5017 86.1496 27.4511C86.7693 27.4006 87.3838 27.5983 87.8578 28.0008C88.3317 28.4033 88.6264 28.9776 88.677 29.5973C88.7275 30.2171 88.5298 30.8315 88.1273 31.3055L72.8906 49.2422C72.6016 49.5862 72.2413 49.8631 71.8345 50.0537C71.4277 50.2444 70.9843 50.3441 70.5351 50.3461H70.5281Z" fill="black"/>
</svg>
