<svg width="150" height="150" viewBox="0 0 150 150" fill="none" xmlns="http://www.w3.org/2000/svg">
<g clip-path="url(#clip0_116_156)">
<path d="M127.504 108.86V5.46797C127.504 2.45361 125.05 0 122.035 0H37.3212C29.4248 0 23 6.4248 23 14.3212V123.526C23 131.423 29.4236 137.846 37.3212 137.846H37.3534V147.799C37.3535 148.206 37.4659 148.604 37.6784 148.951C37.8908 149.297 38.195 149.578 38.5572 149.762C38.9199 149.946 39.3262 150.025 39.7312 149.992C40.1363 149.959 40.5244 149.815 40.8526 149.575L46.8849 145.164L52.9183 149.575C53.2951 149.852 53.7501 150 54.2173 150C54.8009 150 55.3605 149.768 55.7732 149.355C56.1859 148.942 56.4178 148.383 56.4181 147.799V137.846H122.035C125.05 137.846 127.503 135.394 127.503 132.379V119.521C127.496 118.942 127.261 118.388 126.849 117.981C126.437 117.574 125.881 117.346 125.302 117.346C124.723 117.346 124.167 117.574 123.755 117.981C123.343 118.388 123.108 118.942 123.102 119.521V132.379C123.101 132.662 122.989 132.933 122.789 133.133C122.588 133.334 122.317 133.446 122.034 133.446H56.4178V127.937H113.2C113.784 127.937 114.343 127.705 114.756 127.293C115.169 126.88 115.401 126.321 115.401 125.737C115.401 125.154 115.169 124.594 114.756 124.181C114.344 123.769 113.784 123.537 113.2 123.537H33.6796C33.0959 123.537 32.5361 123.769 32.1234 124.181C31.7107 124.594 31.4788 125.154 31.4788 125.737C31.4791 126.321 31.7111 126.88 32.1238 127.293C32.5365 127.705 33.0961 127.937 33.6796 127.937H37.3534V133.446H37.3212C31.8509 133.446 27.4004 128.996 27.4004 123.526V120.98C27.4004 115.51 31.8506 111.06 37.3212 111.06H125.303C125.887 111.06 126.447 110.828 126.859 110.416C127.272 110.003 127.504 109.443 127.504 108.86ZM52.0177 127.937V143.464L48.1851 140.662C47.808 140.386 47.3529 140.237 46.8856 140.237C46.4183 140.237 45.9632 140.386 45.5861 140.662L41.7535 143.464V127.937H52.0177ZM27.4013 110.667V14.3209C27.4013 8.85088 31.8509 4.40039 37.3212 4.40039H122.035C122.318 4.40062 122.589 4.51317 122.79 4.71332C122.99 4.91347 123.102 5.18487 123.103 5.46797V106.659H37.3212C33.4725 106.659 29.9765 108.188 27.4013 110.667V110.667Z" fill="black"/>
<path d="M39.8422 114.963C39.2585 114.963 38.6987 115.195 38.286 115.607C37.8733 116.02 37.6414 116.58 37.6414 117.163C37.6414 117.747 37.8733 118.307 38.286 118.72C38.6987 119.132 39.2585 119.364 39.8422 119.364H85.6303C86.214 119.364 86.7737 119.132 87.1865 118.72C87.5992 118.307 87.8311 117.747 87.8311 117.163C87.8311 116.58 87.5992 116.02 87.1865 115.607C86.7737 115.195 86.214 114.963 85.6303 114.963H39.8422ZM95.9686 114.963C95.3849 114.963 94.8251 115.195 94.4124 115.607C93.9996 116.02 93.7678 116.58 93.7678 117.163C93.7678 117.747 93.9996 118.307 94.4124 118.72C94.8251 119.132 95.3849 119.364 95.9686 119.364H113.2C113.784 119.364 114.344 119.132 114.756 118.72C115.169 118.307 115.401 117.747 115.401 117.163C115.401 116.58 115.169 116.02 114.756 115.607C114.344 115.195 113.784 114.963 113.2 114.963H95.9686ZM52.1504 73.8466H48.248C47.3976 73.8466 47.1494 74.6156 47.1494 75.3846C47.1494 76.1537 47.3691 76.95 48.248 76.95H50.3639C50.9958 76.95 51.1607 77.1697 51.1329 77.8564C51.0781 79.1759 50.6662 81.5929 47.5074 81.5929C43.9906 81.5929 43.6051 77.3071 43.6051 74.8889C43.6051 72.005 44.0732 68.2136 47.5074 68.2136C49.3479 68.2136 50.1717 69.0926 50.5836 70.6582C50.7761 71.3721 51.2428 71.6754 52.782 71.6754C54.1827 71.6754 54.5398 70.9052 54.3752 70.0262C53.7424 66.7854 51.3526 64.9989 47.5063 64.9989C41.9023 65.3012 39.8422 69.285 39.8422 74.8889C39.8422 80.3844 42.0122 84.8077 47.6439 84.8077C53.0006 84.8077 54.897 80.9338 54.7045 76.2073C54.6497 74.7255 54.1555 73.8466 52.1504 73.8466ZM69.8135 65.1914C68.9067 65.1914 68.0006 65.4668 68.0006 66.4558V77.9387C68.0006 80.0276 66.8182 81.5379 64.676 81.5379C62.5338 81.5379 61.3789 80.0273 61.3789 77.9387V66.4558C61.3789 65.4671 60.4725 65.1914 59.5651 65.1914C58.6587 65.1914 57.7522 65.4668 57.7522 66.4558V77.6092C57.7522 82.7191 60.6374 84.8349 64.676 84.8349C68.7409 84.8349 71.6261 82.7191 71.6261 77.6092V66.4558C71.6261 65.4671 70.7199 65.1914 69.8135 65.1914ZM77.0094 65.1914C76.1029 65.1914 75.1965 65.4668 75.1965 66.4558V83.489C75.1965 84.5056 76.1029 84.7802 77.0094 84.7802C77.9158 84.7802 78.8492 84.5053 78.8492 83.4893V66.4558C78.8492 65.4671 77.9155 65.1914 77.0094 65.1914ZM88.9042 65.3012H85.1129C83.7119 65.3012 82.4211 65.6581 82.4211 67.7191V82.0872C82.4211 84.1761 83.7119 84.5329 85.1129 84.5329H88.9042C94.371 84.5329 96.5135 80.0273 96.5135 74.9176C96.5135 69.8065 94.3162 65.3012 88.9042 65.3012ZM88.9042 81.2083H86.5136C86.2115 81.2083 86.0466 81.0984 86.0466 80.7416V69.065C86.0466 68.7079 86.2115 68.598 86.5136 68.598H88.9042C91.898 68.598 92.7781 72.225 92.7781 74.9174C92.7781 77.6092 91.9804 81.2083 88.9042 81.2083ZM103.381 68.598H109.507C110.442 68.598 110.662 67.7742 110.662 66.9501C110.662 66.1259 110.415 65.3021 109.507 65.3021H101.953C100.578 65.3021 99.2601 65.6595 99.2601 67.7191V82.1147C99.2601 84.1758 100.578 84.5329 101.953 84.5329H109.507C110.413 84.5329 110.662 83.7091 110.662 82.8849C110.662 82.0608 110.442 81.2358 109.507 81.2358H103.381C103.051 81.2358 102.914 81.126 102.914 80.7688V76.2363H108.491C109.397 76.2363 109.644 75.4122 109.644 74.5884C109.644 73.7645 109.397 72.9404 108.491 72.9404H102.914V69.0665C102.914 68.7082 103.052 68.5983 103.381 68.5983V68.598ZM97.596 11.1521C86.6782 11.1521 77.7954 20.0349 77.7954 30.9527C77.7954 41.8717 86.6782 50.7545 97.596 50.7545C108.515 50.7545 117.398 41.8717 117.398 30.9527C117.398 20.0352 108.515 11.1521 97.596 11.1521ZM97.596 46.3544C89.1046 46.3544 82.1958 39.4456 82.1958 30.9539C82.1958 22.4613 89.1046 15.5525 97.596 15.5525C106.089 15.5525 112.997 22.4613 112.997 30.9539C112.997 39.4456 106.089 46.3544 97.596 46.3544ZM70.3262 16.2011L68.2763 18.2519C65.7355 15.2107 62.3397 13.0028 58.5292 11.9144C53.4436 10.461 48.0957 11.0745 43.4724 13.6424C38.8479 16.2105 35.5016 20.4258 34.0479 25.5111C31.0473 36.0088 37.1457 46.9916 47.6445 49.9925C49.4116 50.4992 51.2408 50.7565 53.0791 50.7568C61.6944 50.7568 69.6424 45.0817 72.1259 36.3955C72.5106 35.0491 72.7526 33.666 72.8478 32.269C72.8697 31.9497 72.8812 31.4827 72.8812 30.9527C72.8811 30.6638 72.8241 30.3777 72.7134 30.1108C72.6028 29.8439 72.4407 29.6014 72.2363 29.3972C72.0319 29.193 71.7893 29.031 71.5224 28.9205C71.2554 28.8101 70.9693 28.7533 70.6804 28.7534C70.097 28.7534 69.5376 28.9851 69.1251 29.3975C68.7126 29.81 68.4808 30.3694 68.4808 30.9527C68.4808 31.374 68.4717 31.754 68.4567 31.9722C68.3825 33.0603 68.1938 34.1376 67.8937 35.1861C65.5602 43.3511 57.0187 48.0949 48.853 45.7614C40.6889 43.4267 35.9442 34.8849 38.2786 26.7208C39.4083 22.7657 42.0119 19.4871 45.6087 17.4899C49.2043 15.493 53.3633 15.0146 57.3184 16.1452C60.4112 17.0284 63.1492 18.8592 65.1471 21.38L52.4785 34.0485L46.4551 28.0254C45.5955 27.1661 44.2027 27.1661 43.3435 28.0254C42.4842 28.8846 42.4839 30.2777 43.3435 31.137L50.9226 38.7164C51.3532 39.1456 51.916 39.3609 52.4791 39.3609C53.0422 39.3609 53.6053 39.147 54.0345 38.7164L73.4378 19.3131C73.6421 19.1088 73.8042 18.8662 73.9148 18.5993C74.0253 18.3323 74.0823 18.0462 74.0823 17.7572C74.0823 17.4683 74.0253 17.1822 73.9148 16.9152C73.8042 16.6483 73.6421 16.4057 73.4378 16.2014C73.0252 15.7889 72.4656 15.5571 71.8821 15.5571C71.2987 15.5571 70.7391 15.7889 70.3265 16.2014L70.3262 16.2011Z" fill="black"/>
<path d="M107.019 21.9396C106.606 21.5269 106.047 21.295 105.463 21.295C104.879 21.295 104.319 21.5269 103.906 21.9396L97.6193 28.2282L91.3304 21.9396C90.9178 21.5271 90.3582 21.2953 89.7747 21.2953C89.1913 21.2953 88.6317 21.5271 88.2191 21.9396C87.8065 22.3522 87.5748 22.9118 87.5748 23.4953C87.5748 24.0787 87.8065 24.6383 88.2191 25.0509L94.5074 31.3398L88.2188 37.6284C87.9111 37.9361 87.7015 38.3282 87.6167 38.7551C87.5318 39.1819 87.5755 39.6244 87.7421 40.0264C87.9087 40.4284 88.1908 40.772 88.5527 41.0137C88.9147 41.2554 89.3401 41.3844 89.7753 41.3842C90.0642 41.3845 90.3503 41.3277 90.6172 41.2171C90.884 41.1065 91.1264 40.9443 91.3304 40.7397L97.619 34.4514L103.906 40.74C104.337 41.1689 104.9 41.3842 105.463 41.3842C106.026 41.3842 106.589 41.1689 107.019 40.7397C107.878 39.8804 107.878 38.4868 107.019 37.6284L100.731 31.3398L107.019 25.0512C107.431 24.6384 107.663 24.0788 107.663 23.4954C107.663 22.912 107.431 22.3525 107.019 21.9396Z" fill="black"/>
</g>
<defs>
<clipPath id="clip0_116_156">
<rect width="150" height="150" fill="white"/>
</clipPath>
</defs>
</svg>
