<svg width="18" height="25" viewBox="0 0 18 25" fill="none" xmlns="http://www.w3.org/2000/svg">
<path fill-rule="evenodd" clip-rule="evenodd" d="M8.91309 24.1917C5.50418 24.1917 2.48602 22.4911 1.03084 19.7701C-0.276133 17.3468 -0.990251 12.9961 2.99803 6.09449C3.07888 5.96694 3.22709 5.91025 3.36183 5.95277C3.51004 6.00946 3.59089 6.15117 3.56394 6.30706C3.25404 8.65956 3.60436 9.65157 3.95468 10.0767C3.9951 10.1192 4.03552 10.1759 4.07595 10.2043C3.29446 6.59049 5.43681 3.26015 5.53113 3.11844C5.61198 2.99089 5.74671 2.94838 5.88145 2.99089C6.00272 3.03341 6.09704 3.16095 6.08356 3.30267C6.04314 5.04578 6.66294 5.44259 6.77073 5.49928C6.78421 5.49928 6.79768 5.49928 6.81115 5.49928C8.11813 5.49928 8.56277 1.65876 8.61666 0.312448C8.61666 0.184903 8.68403 0.0857014 8.77835 0.0290147C8.88614 -0.0135003 9.00741 -0.0135003 9.08825 0.057358C13.4808 3.34518 13.6694 8.71624 13.629 10.2893C13.7098 10.2468 13.7907 10.1759 13.885 10.0767C14.2353 9.65157 14.5856 8.65956 14.2622 6.30706C14.2488 6.15117 14.3296 6.00946 14.4643 5.95277C14.5991 5.91025 14.7608 5.96694 14.8281 6.09449C18.8164 12.9961 18.1023 17.3468 16.8088 19.7701C15.3536 22.4911 12.322 24.1917 8.91309 24.1917Z" fill="url(#paint0_linear_20_226)"/>
<path fill-rule="evenodd" clip-rule="evenodd" d="M8.91932 24.1917C7.19848 24.1917 5.67489 23.3784 4.9403 22.0771C4.28053 20.9181 3.92004 18.8374 5.93335 15.5367C5.97416 15.4757 6.04898 15.4486 6.117 15.4689C6.19182 15.496 6.23263 15.5638 6.21902 15.6384C6.06258 16.7635 6.23943 17.2379 6.41627 17.4412C6.43668 17.4615 6.45709 17.4887 6.47749 17.5022C6.08299 15.7739 7.16447 14.1812 7.21208 14.1134C7.25289 14.0524 7.32091 14.0321 7.38892 14.0524C7.45014 14.0728 7.49775 14.1338 7.49095 14.2015C7.47054 15.0352 7.78343 15.2249 7.83784 15.2521C7.84464 15.2521 7.85144 15.2521 7.85824 15.2521C8.51801 15.2521 8.74247 13.4153 8.76968 12.7715C8.76968 12.7105 8.80369 12.663 8.8513 12.6359C8.90571 12.6156 8.96693 12.6156 9.00774 12.6495C11.2251 14.2219 11.3203 16.7906 11.2999 17.5429C11.3407 17.5225 11.3815 17.4887 11.4292 17.4412C11.606 17.2379 11.7828 16.7635 11.6196 15.6384C11.6128 15.5638 11.6536 15.496 11.7216 15.4689C11.7897 15.4486 11.8713 15.4757 11.9053 15.5367C13.9186 18.8374 13.5581 20.9181 12.9051 22.0771C12.1705 23.3784 10.6402 24.1917 8.91932 24.1917Z" fill="#FFFDD8"/>
<path fill-rule="evenodd" clip-rule="evenodd" d="M2.99803 6.09449C-0.990251 12.9961 -0.276132 17.3468 1.03084 19.7701C2.36476 22.2785 5.0326 23.9083 8.11813 24.1492C7.30969 24.0642 6.56862 23.8232 5.94882 23.4264C4.33195 22.6753 3.01151 21.4566 2.1896 19.926C0.976943 17.6444 0.262825 13.6905 3.45615 7.52582C3.46962 7.17153 3.51004 6.76055 3.56394 6.30706C3.59089 6.15117 3.51004 6.00946 3.36183 5.95277C3.22709 5.91026 3.07888 5.96694 2.99803 6.09449Z" fill="url(#paint1_linear_20_226)"/>
<defs>
<linearGradient id="paint0_linear_20_226" x1="8.91755" y1="0.000838765" x2="8.91755" y2="24.186" gradientUnits="userSpaceOnUse">
<stop stop-color="#FF9911"/>
<stop offset="1" stop-color="#FF6600"/>
</linearGradient>
<linearGradient id="paint1_linear_20_226" x1="4.05924" y1="5.93782" x2="4.05924" y2="24.1544" gradientUnits="userSpaceOnUse">
<stop stop-color="#FF7C0E"/>
<stop offset="1" stop-color="#FF5300"/>
</linearGradient>
</defs>
</svg>
