<svg width="641" height="482" viewBox="0 0 641 482" fill="none" xmlns="http://www.w3.org/2000/svg">
<g clip-path="url(#clip0_1828_133745)">
<mask id="mask0_1828_133745" style="mask-type:luminance" maskUnits="userSpaceOnUse" x="35" y="27" width="570" height="428">
<path d="M605 27H35V454.5H605V27Z" fill="white"/>
</mask>
<g mask="url(#mask0_1828_133745)">
<path d="M168.71 27H471.217V454.5H168.71V27Z" fill="white"/>
<path d="M17.499 27H168.711V454.5H17.499V27ZM471.217 27H622.428V454.5H471.3L471.217 27ZM214.049 233.569L202.193 237.577L256.882 285.588C261.057 297.861 255.463 301.451 251.873 307.965L311.154 300.449L309.736 360.149L322.093 359.816L319.338 300.533L378.787 307.631C375.113 299.865 371.857 295.774 375.197 283.416L429.803 237.912L420.285 234.404C412.435 228.393 423.624 205.431 425.294 190.903C425.294 190.903 393.482 201.841 391.394 196.08L383.212 180.466L354.238 212.361C351.066 213.113 349.73 211.86 348.978 209.188L362.338 142.559L341.13 154.498C339.377 155.334 337.623 154.666 336.454 152.578L315.998 111.665L294.957 154.164C293.37 155.668 291.783 155.834 290.447 154.832L270.242 143.477L282.432 209.523C281.43 212.195 279.092 212.862 276.42 211.443L248.617 179.965C245.026 185.809 242.605 195.244 237.762 197.416C233.002 199.42 216.888 193.408 206.117 191.07C209.791 204.346 221.313 226.389 214.049 233.653V233.569Z" fill="#D52B1E"/>
</g>
<path d="M18 464V18H623V464H18Z" stroke="#DCDEE1" stroke-width="35"/>
</g>
<defs>
<clipPath id="clip0_1828_133745">
<rect width="640" height="481" fill="white" transform="translate(0.5 0.5)"/>
</clipPath>
</defs>
</svg>
