<svg xmlns="http://www.w3.org/2000/svg" viewBox="0 0 150 150"><g id="Layer_2" data-name="Layer 2"><path d="M138,75.56a7.19,7.19,0,0,0-3.89-2.32,8,8,0,0,0-3.48.23,8.54,8.54,0,0,0-2.49,1.15,32.67,32.67,0,0,0-5.61,4.71c-2-.38-4.26-.89-6.57-1.41l9.58-8.25a18.27,18.27,0,0,1,4.35-2.83,14.63,14.63,0,0,1,4.18-1.3,57.5,57.5,0,0,1,9.81,0l.41.09c.84.22,3.71,1.6,3.71,3.76" style="fill:none;stroke:#231f20;stroke-miterlimit:10;stroke-width:3.5px"/><path d="M2.17,68.68A4.88,4.88,0,0,1,4,66.58a7,7,0,0,1,4-1.19h6a13.48,13.48,0,0,1,2.54.22,24.87,24.87,0,0,1,9.76,4.93L34,77.69l-6.56,1.56c-1.75-2-5.13-4.85-7.36-5.69a6.94,6.94,0,0,0-2.49-.41,7.28,7.28,0,0,0-3.81,1.24l-2,1.32" style="fill:none;stroke:#231f20;stroke-miterlimit:10;stroke-width:3.5px"/><path d="M148.05,69.75v5.48a9.55,9.55,0,0,1-1,4.33c-2.35,4.62-8,15.67-9.65,18.52-2.11,3.63-4.42,4-4.42,4s-23.45,4-28,3.76-7.35-5.65-7.35-5.65L79.55,62.87a7.94,7.94,0,0,0-1.66-2.36c-2.33-2.2-4.4-1.17-5.66,0a7,7,0,0,0-1.64,2.28C68,68.19,53.31,99.16,50.85,102.62a8.36,8.36,0,0,1-5.17,3.13,12.12,12.12,0,0,1-4.37.12c-3.87-.56-15.87-2.27-20.51-2.85a11.2,11.2,0,0,1-8-5.25S4,81.29,3.25,79.68A14.1,14.1,0,0,1,2,75.11v-5.6a3.22,3.22,0,0,1,.19-.77s0,0,0-.06c1.38-2.2,3-.2,3-.2s2.34,2.69,6.52,7.23c.35.38.76.72,1.16,1.09,4.93,4.54,8.91,3.8,8.91,3.8l5.63-1.35L34,77.69,47.3,74.51q.38-.09.75-.21l.86-.31a15.07,15.07,0,0,0,7.16-6.06c1.88-3,5.4-8.69,10.7-17.7,8.43-14.3,16.52.46,16.52.46l8.64,13.45a38.84,38.84,0,0,0,5.38,7.09,13.15,13.15,0,0,0,5.77,3.51s6.1,1.61,12.9,3.18c2.31.52,4.6,1,6.57,1.41a45.73,45.73,0,0,0,4.55.71,15.18,15.18,0,0,0,6.42-.79,7.25,7.25,0,0,0,2.85-1.91c.43-.47,1-1.09,1.65-1.78,2.9-3.12,7.43-7.83,8.31-8a1.54,1.54,0,0,1,1.55,1.06A3.74,3.74,0,0,1,148.05,69.75Z" style="fill:none;stroke:#231f20;stroke-miterlimit:10;stroke-width:3.5px"/><line x1="128.31" y1="80.09" x2="128.52" y2="102.82" style="fill:none;stroke:#231f20;stroke-miterlimit:10;stroke-width:3.5px"/><line x1="21.78" y1="80.6" x2="21.78" y2="103.15" style="fill:none;stroke:#231f20;stroke-miterlimit:10;stroke-width:3.5px"/></g></svg>